<svg width="1429" height="1203" viewBox="0 0 1429 1203" fill="none" xmlns="http://www.w3.org/2000/svg">
<g clip-path="url(#clip0_280_2)">
<path d="M808.465 166.197C825.947 173.784 842.331 182.19 857.182 191.149C909.108 222.449 950.879 268.021 1001.9 299.416C1050.09 329.059 1108.93 336.266 1164.06 341.221C1260.17 349.859 1460.62 432.697 1424.42 586.233C1411.26 642.108 1364.82 680.055 1341.05 730.653C1315.76 784.476 1318.41 851.607 1278.15 898.267C1260.44 918.784 1235.98 932.334 1210.88 942.598C1043.82 1010.89 856.207 1007.71 679.064 1000.18C539.244 994.244 314.675 1025.64 191.863 948.967C130.89 910.897 162.597 806.83 120.406 750.935C84.953 703.967 36.7016 673.117 12.9988 614.325C-27.3374 514.284 30.158 384.094 130.827 348.582C193.735 326.39 260.38 316.223 322.564 291.852C386.809 266.663 411.563 228.936 460.558 184.282C549.131 103.57 699.88 119.06 808.465 166.197Z" fill="#CCFFD2"/>
<path d="M963.188 962.189H478.242V658.907C478.242 653.175 482.803 648.531 488.426 648.531H953.004C958.631 648.531 963.188 653.175 963.188 658.907V962.189Z" fill="#D3D3D3"/>
<path d="M495.99 670.504H945.444V937.95H495.99V670.504Z" fill="#F2F2F2"/>
<path d="M401.117 1052.47C396.66 1058.3 405.178 1075.71 418.537 1075.71H1033.26C1046.61 1075.71 1055.02 1058.3 1049.91 1052.47H401.117Z" fill="#D3D3D3"/>
<path d="M1048.2 1049.28C1053.31 1055.1 1046.61 1059.83 1033.27 1059.83H418.539C405.18 1059.83 397.968 1055.1 402.426 1049.28L465.362 966.994C469.82 961.168 481.484 956.447 491.422 956.447H948.765C958.692 956.447 970.899 961.168 976.011 966.994C1000.07 994.432 1024.14 1021.85 1048.2 1049.28Z" fill="#F2F2F2"/>
<g opacity="0.5">
<path d="M538.949 984.205H518.186C521.124 979.856 522.595 977.675 525.527 973.323H545.47L538.949 984.205ZM565.858 984.205H545.095C547.61 979.856 548.867 977.675 551.376 973.323H571.313L565.858 984.205ZM557.26 971.24H526.95L529.688 967.18H559.537L557.26 971.24ZM592.784 971.243L562.466 971.24L564.658 967.18H594.507C593.821 968.806 593.47 969.617 592.784 971.243ZM628.311 971.24H597.99L599.63 967.18H629.494L628.311 971.24ZM663.832 971.24H633.52L634.609 967.18H664.464C664.218 968.806 664.089 969.617 663.832 971.24ZM699.362 971.24H669.041L669.593 967.18H699.439L699.362 971.24ZM734.886 971.24H704.574V967.18H734.421C734.609 968.806 734.692 969.617 734.886 971.24ZM770.416 971.24H740.098L739.544 967.18H769.402C769.802 968.806 770.008 969.617 770.416 971.24ZM805.946 971.24H775.625L774.528 967.18H804.377C805.009 968.806 805.32 969.617 805.946 971.24ZM841.473 971.24H811.155C810.49 969.617 810.161 968.806 809.498 967.18H839.362L841.473 971.24ZM876.992 971.24H846.68C845.802 969.617 845.359 968.806 844.488 967.18H874.329C875.392 968.806 875.923 969.617 876.992 971.24ZM916.634 971.24H882.207L879.461 967.18H913.362C914.668 968.806 915.328 969.617 916.634 971.24ZM592.755 984.205H571.998C574.084 979.856 575.133 977.678 577.213 973.329L597.15 973.323C595.395 977.681 594.515 979.85 592.755 984.205ZM619.658 984.205H598.899C600.565 979.856 601.393 977.675 603.062 973.323L622.999 973.329L619.658 984.205ZM646.567 984.205H625.811C627.051 979.85 627.674 977.678 628.908 973.323H648.845C647.936 977.675 647.473 979.856 646.567 984.205ZM673.47 984.205H652.714C653.525 979.856 653.925 977.67 654.745 973.323H674.688C674.196 977.675 673.948 979.856 673.47 984.205ZM700.359 984.205H679.62L680.591 973.323H700.522C700.462 977.675 700.431 979.856 700.359 984.205ZM727.277 984.205H706.52L706.44 973.323H726.371C726.737 977.675 726.917 979.856 727.277 984.205ZM754.177 984.205H733.429L732.292 973.323H752.214C753.003 977.675 753.391 979.856 754.177 984.205ZM781.075 984.205H760.324C759.446 979.856 759.004 977.675 758.121 973.323H778.057C779.26 977.675 779.866 979.856 781.075 984.205ZM530.253 998.709H508.414L515.74 987.831H536.774L530.253 998.709ZM558.58 998.709H536.731C539.246 994.36 540.503 992.183 543.012 987.831H564.046C561.854 992.18 560.757 994.357 558.58 998.709ZM586.894 998.709H565.046C567.132 994.36 568.169 992.183 570.261 987.831H591.286C589.529 992.183 588.646 994.357 586.894 998.709ZM615.212 998.709H593.358C595.021 994.36 595.856 992.183 597.513 987.831H618.55C617.212 992.183 616.544 994.357 615.212 998.709ZM643.533 998.709H621.687C622.927 994.36 623.542 992.183 624.779 987.839C633.194 987.839 637.392 987.831 645.807 987.831C644.89 992.183 644.441 994.357 643.533 998.709ZM671.839 998.709H649.993L652.031 987.831H673.056C672.573 992.18 672.325 994.357 671.839 998.709ZM700.151 998.709H678.314L679.291 987.831H700.305L700.151 998.709ZM728.474 998.709H706.629L706.549 987.831H727.574C727.931 992.183 728.12 994.357 728.474 998.709ZM756.786 998.709H734.952C734.492 994.36 734.261 992.183 733.812 987.831H754.826L756.786 998.709ZM785.101 998.709H763.261C762.378 994.36 761.932 992.183 761.055 987.831H782.081L785.101 998.709ZM521.567 1013.21H498.63C501.559 1008.86 503.033 1006.68 505.968 1002.34L528.088 1002.33C525.479 1006.68 524.17 1008.86 521.567 1013.21ZM551.296 1013.21H528.365L534.637 1002.34H556.762C554.576 1006.68 553.479 1008.86 551.296 1013.21ZM581.031 1013.21H558.088L563.303 1002.34H585.423L581.031 1013.21ZM610.757 1013.21H587.812L591.969 1002.34H614.095L610.757 1013.21ZM640.484 1013.21H617.555C618.79 1008.86 619.418 1006.68 620.647 1002.34H642.764C641.861 1006.68 641.401 1008.86 640.484 1013.21ZM670.207 1013.21H647.276C648.087 1008.86 648.502 1006.68 649.316 1002.34H671.436L670.207 1013.21ZM699.931 1013.21H677.011L677.982 1002.34H700.091C700.034 1006.68 699.999 1008.86 699.931 1013.21ZM729.68 1013.21H706.74C706.714 1008.86 706.694 1006.68 706.66 1002.34H728.777C729.14 1006.68 729.314 1008.86 729.68 1013.21ZM759.404 1013.21H736.481C736.021 1008.86 735.789 1006.68 735.335 1002.34H757.443C758.226 1006.68 758.623 1008.86 759.404 1013.21ZM789.124 1013.21H766.187C765.313 1008.86 764.873 1006.68 763.99 1002.34H786.107L789.124 1013.21ZM512.874 1027.71H488.846C491.777 1023.36 493.255 1021.19 496.187 1016.84H519.389C517.221 1020.47 515.05 1024.09 512.874 1027.71ZM544.021 1027.71H519.998L526.279 1016.84H549.487C547.301 1021.19 546.201 1023.36 544.021 1027.71ZM575.159 1027.71H551.136C553.222 1023.36 554.268 1021.19 556.359 1016.84H579.559C577.802 1021.19 576.925 1023.36 575.159 1027.71ZM606.2 1028.06H582.134C583.86 1023.57 584.711 1021.33 586.426 1016.84H609.643C608.266 1021.32 607.58 1023.57 606.2 1028.06ZM793.159 1027.71H613.42C614.652 1023.36 615.269 1021.19 616.509 1016.84H790.139L793.159 1027.71ZM660.3 1051.61H796.648L785.167 1033.08H671.153L660.3 1051.61ZM805.42 984.205H784.664C783.392 979.856 782.766 977.675 781.503 973.323H801.44C803.032 977.67 803.82 979.856 805.42 984.205ZM810.724 998.709H788.87C787.61 994.36 786.981 992.183 785.715 987.831H806.752C808.335 992.183 809.132 994.357 810.724 998.709ZM816.027 1013.21H793.088C791.822 1008.86 791.199 1006.68 789.933 1002.34H812.053C813.641 1006.68 814.43 1008.86 816.027 1013.21ZM821.331 1027.71H797.302L794.142 1016.84H817.35L821.331 1027.71ZM829.752 984.205H808.995C807.346 979.856 806.518 977.675 804.878 973.323H824.817C826.786 977.675 827.777 979.856 829.752 984.205ZM836.338 998.709H814.49C812.841 994.36 812.013 992.183 810.372 987.831H831.401C833.369 992.18 834.364 994.357 836.338 998.709ZM842.916 1013.21H819.979L815.856 1002.34H837.976C839.959 1006.68 840.939 1008.86 842.916 1013.21ZM849.497 1027.71H825.466C823.825 1023.36 822.997 1021.19 821.357 1016.84H844.559C846.537 1021.19 847.517 1023.36 849.497 1027.71ZM854.086 984.205H833.332L828.252 973.323H848.194C850.552 977.675 851.734 979.856 854.086 984.205ZM861.944 998.709H840.099L835.018 987.831H856.052C858.407 992.183 859.593 994.357 861.944 998.709ZM869.811 1013.21H846.871C844.839 1008.86 843.828 1006.68 841.79 1002.34H863.916L869.811 1013.21ZM877.666 1027.71H853.638C851.609 1023.36 850.597 1021.19 848.56 1016.84H871.771L877.666 1027.71ZM878.418 984.205H857.664L851.632 973.323H871.563C874.314 977.675 875.677 979.856 878.418 984.205ZM887.559 998.709H865.713L859.678 987.831H880.707C883.447 992.183 884.824 994.357 887.559 998.709ZM896.697 1013.21H873.766C871.351 1008.86 870.148 1006.68 867.728 1002.34H889.848C892.591 1006.68 893.96 1008.86 896.697 1013.21ZM905.838 1027.71H881.809C879.801 1024.08 877.788 1020.46 875.772 1016.84H898.986C901.723 1021.19 903.092 1023.36 905.838 1027.71ZM902.763 984.205H882.001C879.198 979.856 877.798 977.675 874.997 973.323H894.942C898.069 977.675 899.629 979.856 902.763 984.205ZM913.17 998.709H891.322C888.522 994.36 887.124 992.183 884.333 987.831H905.361C908.487 992.183 910.05 994.357 913.17 998.709ZM923.592 1013.21H900.646C897.851 1008.86 896.457 1006.68 893.657 1002.34H915.782C918.911 1006.68 920.468 1008.86 923.592 1013.21ZM934.004 1027.71H909.97L902.978 1016.84H926.195L934.004 1027.71ZM927.086 984.205H906.335C903.152 979.856 901.566 977.675 898.374 973.323H918.32C921.826 977.675 923.577 979.856 927.086 984.205ZM938.782 998.709H916.934C913.762 994.36 912.165 992.183 908.987 987.831H930.012L938.782 998.709ZM950.478 1013.21H927.541C924.357 1008.86 922.771 1006.68 919.588 1002.34H941.708C945.217 1006.68 946.969 1008.86 950.478 1013.21ZM962.173 1027.71H938.139L930.192 1016.84H953.401C956.91 1021.19 958.659 1023.36 962.173 1027.71Z" fill="#D3D3D3"/>
</g>
<path d="M835.806 937.877H621.814C623.343 931.665 624.743 926.705 625.972 923.253C626.609 921.48 627.485 919.803 628.578 918.269C632.37 912.897 638.862 908.328 647.226 904.465C657.21 899.847 669.846 896.218 683.699 893.341C698.418 890.323 714.474 888.149 730.107 886.574C731.165 886.48 732.21 886.368 733.268 886.277C750.656 884.654 767.36 883.762 780.839 883.331C799.447 882.688 811.991 882.822 811.991 882.822C811.991 882.822 812.997 884.425 814.76 887.626C818.889 895.215 827.145 911.849 835.806 937.877Z" fill="#0B4870"/>
<path d="M671.882 588.709C671.476 591.452 670.762 593.992 669.75 596.438L670.356 589.523C670.867 589.215 671.379 589.015 671.882 588.709Z" fill="#FFE3CA"/>
<path d="M785.233 578.44V578.531C785.025 578.44 784.822 578.334 784.725 578.334C784.93 578.337 785.025 578.44 785.233 578.44Z" fill="#EEBEA7"/>
<path d="M1004.85 724.362C1004.85 724.362 1018.07 712.109 1015.45 702.917C1013.23 695.116 1016.58 686.377 1017.42 682.751C1018.55 677.948 1019 662.355 1022.59 663.203C1028.65 664.678 1027.25 689.569 1028 694.876C1028.75 700.176 1044.82 682.423 1050.3 681.494C1055.79 680.545 1083.69 708.823 1071.26 719.744C1058.83 730.643 1041.69 735.066 1039.88 737.421C1038.07 739.775 1029.55 746.245 1029.55 746.245L1004.85 724.362Z" fill="#F1B99E"/>
<path d="M1046.79 683.342C1046.79 683.342 1087.08 652.481 1091.48 652.667C1095.9 652.844 1097.43 655.141 1093.78 658.176C1090.14 661.219 1055.73 689.143 1055.73 689.143C1055.73 689.143 1109.54 660.614 1113.2 659.976C1115.32 659.599 1116.95 663.68 1115.14 665.494C1113.34 667.289 1063.26 698.795 1063.26 698.795C1063.26 698.795 1113.55 672.243 1116.75 672.621C1119.56 672.961 1121.57 677.596 1117.97 679.819C1114.38 682.039 1069.09 709.328 1069.09 709.328C1069.09 709.328 1106.92 692.32 1109.44 694.22C1110.97 695.398 1113.15 697.981 1103.27 702.061C1093.36 706.147 1071.82 719.192 1071.82 719.192L1046.79 683.342Z" fill="#F1B99E"/>
<path d="M759.106 551.801V554.544C758.892 554.044 758.694 553.632 758.597 553.124C758.389 553.024 758.389 552.824 758.389 552.712C758.597 552.415 758.797 552.115 759.106 551.801Z" fill="#FFBE55"/>
<path d="M728.815 568.48C728.409 568.574 727.892 568.574 727.492 568.574V568.374C727.892 568.48 728.409 568.48 728.815 568.48ZM759.11 551.801V552.618C758.937 552.783 758.768 552.952 758.602 553.124C757.484 554.344 756.258 555.458 755.041 556.581C754.53 556.99 754.127 557.39 753.624 557.799C754.227 557.196 754.938 556.479 755.558 555.87C756.473 554.955 757.381 553.838 758.393 552.712C758.602 552.415 758.802 552.115 759.11 551.801Z" fill="#EEBEA7"/>
<path d="M782.385 516.732C776.796 529.136 769.981 540.32 762.251 549.164C761.242 550.382 760.117 551.599 759.105 552.619V551.802C758.796 552.113 758.596 552.416 758.388 552.713C757.376 553.839 756.467 554.957 755.553 555.871C754.933 556.482 754.222 557.197 753.619 557.8C753.404 557.905 753.21 558.111 753.007 558.311C752.699 558.614 752.396 558.923 752.084 559.023C751.283 559.724 750.434 560.368 749.544 560.952C748.429 561.766 747.415 562.475 746.301 563.086C746.035 563.266 745.764 563.437 745.486 563.598C744.46 564.2 743.455 564.712 742.546 565.115C741.631 565.606 740.675 566.015 739.688 566.338L739.591 566.441C738.78 566.646 738.165 566.949 737.451 567.152C737.242 567.255 737.051 567.358 736.84 567.358C736.137 567.558 735.422 567.758 734.705 567.867C734.508 567.867 734.405 567.964 734.202 567.964H733.891C733.388 568.072 732.782 568.172 732.273 568.275C731.762 568.372 731.153 568.372 730.647 568.372C730.144 568.478 729.622 568.478 729.216 568.478H729.119C729.021 568.572 728.919 568.572 728.816 568.478C728.41 568.478 727.893 568.478 727.493 568.372V568.572C726.887 568.572 726.273 568.478 725.567 568.372C724.849 568.275 724.038 568.172 723.321 568.072C722.915 567.964 722.518 567.964 721.998 567.867C721.598 567.758 721.186 567.758 720.78 567.558C718.649 567.049 716.623 566.235 714.483 565.115C713.815 564.787 713.169 564.416 712.548 564.006C709.196 562.075 705.939 559.328 702.581 555.868C701.372 554.657 700.249 553.228 699.029 551.799C693.846 545.293 688.668 536.66 683.885 525.682C681.934 521.291 680.103 516.849 678.393 512.36C680.93 517.341 676.504 470.878 677.524 472.51C663.702 446.078 677.478 467.832 682.37 454.725C712.959 467.632 772.421 489.897 772.421 467.326C772.421 467.326 773.741 481.051 775.273 495.281C776.49 506.971 777.813 519.075 778.427 523.647C778.424 523.644 780.042 521.101 782.385 516.732Z" fill="#F4C7B1"/>
<path d="M728.815 568.48C728.409 568.574 727.892 568.574 727.492 568.574V568.374C727.892 568.48 728.409 568.48 728.815 568.48ZM759.11 551.801V552.618C758.937 552.783 758.768 552.952 758.602 553.124C757.484 554.344 756.258 555.458 755.041 556.581C754.53 556.99 754.127 557.39 753.624 557.799C754.227 557.196 754.938 556.479 755.558 555.87C756.473 554.955 757.381 553.838 758.393 552.712C758.602 552.415 758.802 552.115 759.11 551.801Z" fill="#EEBEA7"/>
<path d="M678.388 512.362C670.25 496.3 657.14 465.605 659.48 436.527V436.421C655.826 412.333 685.812 368.925 731.56 371.159C777.3 368.925 807.295 412.333 803.632 436.421V436.527C805.046 454.112 800.78 472.205 795.497 487.359C798.851 487.247 802.097 487.656 805.352 488.776C823.554 494.777 832.09 518.462 824.366 541.539C816.745 564.714 795.697 578.535 777.503 572.54C769.062 569.794 762.656 563.191 759.104 554.544V552.618C760.115 551.601 761.244 550.381 762.25 549.163C769.979 540.319 776.794 529.135 782.384 516.731C780.04 521.103 778.617 526.475 778.617 526.475C778.003 521.909 776.483 506.97 775.266 495.28C773.731 481.049 772.414 467.325 772.414 467.325C772.414 489.899 712.952 467.631 682.363 454.723L678.388 512.362Z" fill="#FFBE55"/>
<path d="M759.11 551.801V554.544C759.11 556.478 759.013 558.816 759.11 561.459C756.158 565.117 753.212 568.171 750.163 570.506C749.138 571.32 748.126 572.035 747.115 572.743C746.346 573.321 745.529 573.831 744.671 574.266H744.574C739.899 576.907 735.219 578.23 730.647 578.333H728.304C728.001 578.333 727.701 578.333 727.492 578.23V568.368C727.892 568.474 728.409 568.474 728.815 568.474C728.918 568.569 729.021 568.569 729.118 568.474H729.215C729.732 568.569 730.141 568.569 730.647 568.569C731.258 568.569 731.967 568.474 732.576 568.368C733.284 568.271 734.104 568.168 734.819 568.068C735.219 567.96 735.622 567.96 736.139 567.863C736.548 567.754 736.95 567.754 737.359 567.554C739.494 567.045 741.522 566.231 743.648 565.111C744.268 564.814 744.986 564.408 745.586 564.002C747.817 562.782 749.955 561.148 752.089 559.016C752.401 558.916 752.704 558.607 753.012 558.304C753.212 558.104 753.41 557.899 753.624 557.793C754.227 557.19 754.938 556.473 755.558 555.864C756.473 554.95 757.381 553.832 758.393 552.707C758.602 552.415 758.802 552.115 759.11 551.801Z" fill="#A5735B"/>
<path d="M727.498 638.916V914.103L774.975 912.074L814.014 910.345L810.042 862.262L805.673 808.479C798.895 811.354 792.149 814.305 785.436 817.331C787.268 796.083 788.08 776.566 786.862 760.601C782.085 701.232 774.667 652.846 768.869 621.231V621.128C769.474 615.03 768.66 608.218 767.243 601.917C767.034 600.617 766.763 599.328 766.431 598.054C766.023 596.628 765.725 595.31 765.317 593.987L764.394 590.941C764.194 590.23 763.885 589.518 763.691 588.904C762.946 586.417 762.06 583.973 761.039 581.586H760.842C761.656 585.249 764.502 597.448 768.054 616.656V616.762C765.728 626.926 758.299 632.618 749.146 635.775C749.049 635.775 748.852 635.87 748.738 635.87C742.446 638.01 735.328 638.818 728.521 638.918C728.215 638.916 727.807 639.021 727.498 638.916Z" fill="white"/>
<path d="M835.958 724.524C838.401 728.276 841.85 735.191 845.311 743.02C844.808 751.661 844.196 756.839 844.196 756.839C844.196 756.839 840.436 766.7 835.452 782.159C834.124 786.014 821.328 854.331 819.905 858.808C819.596 859.62 819.388 860.534 819.091 861.349C814.416 863.68 815.459 859.611 807.321 862.874C804.892 863.886 802.24 864.903 799.494 866.118C799.088 866.332 798.585 866.529 797.862 866.832C797.051 867.138 796.239 867.444 795.425 867.849C790.019 870.176 784.634 872.548 779.269 874.967C781.092 853.719 788.081 776.567 786.858 760.605C782.083 701.235 774.668 652.849 768.87 621.234V621.131C768.559 619.608 768.367 618.188 768.059 616.762V616.657C764.501 597.449 761.655 585.253 760.838 581.587H787.17V581.795C794.485 581.284 829.017 576.423 852.606 598.889C839.59 593.297 822.342 598.357 816.556 601.921C814.214 603.261 812.057 604.901 810.138 606.798C807.191 609.55 804.78 612.825 803.029 616.457C786.155 651.326 828.84 713.74 835.958 724.524Z" fill="#008080"/>
<path d="M837.878 937.881H772.453C773.136 929.543 774.005 920.899 774.968 912.084C775.948 902.623 777.117 893.004 778.231 883.335C778.602 879.997 778.988 876.68 779.354 873.351C779.354 873.351 779.377 873.351 779.403 873.328C787.349 870.422 797.796 856.917 809.249 852.394C809.52 852.3 809.772 852.188 810.046 852.094C813.312 850.977 816.558 860.023 819.896 858.812C822.042 881.529 829.7 911.169 837.878 937.881Z" fill="#008080"/>
<path d="M727.498 578.232V638.919C727.807 639.024 728.215 638.919 728.524 638.919C735.33 638.819 742.448 638.01 748.741 635.87C748.858 635.87 749.052 635.775 749.149 635.775C758.299 632.618 765.728 626.926 768.057 616.762V616.656C764.505 597.448 761.662 585.252 760.845 581.586H759.419V579.657C759.419 578.44 759.313 577.32 759.313 576.2C759.216 572.539 759.216 569.085 759.116 565.727V561.461C756.17 565.119 753.218 568.173 750.172 570.508C749.231 571.348 748.212 572.097 747.129 572.745C746.358 573.32 745.541 573.829 744.686 574.268H744.589C739.599 577.117 734.722 578.334 729.844 578.334C729.027 578.334 728.215 578.334 727.498 578.232Z" fill="#F4C7B1"/>
<path d="M1019.14 711.548L1021.49 715.734L1021.56 715.814L1039.93 748.284L1042.77 753.282C1042.77 753.282 1037.2 755.525 1028.44 759.231C1020.47 762.6 1009.89 767.026 998.416 771.993C995.235 773.413 992.04 774.804 988.832 776.164C966.524 786.06 943.041 796.624 931.283 803.385C905.631 818.035 884.285 823.153 871.281 822.884C858.345 822.541 829.973 745.967 825.541 727.596C821.049 709.305 804.45 675.601 792.557 643.509C787.525 629.873 788.98 617.84 793.289 608.287C799.021 595.337 809.828 586.968 816.5 585.63C819.13 585.027 821.827 584.763 824.524 584.845C828.682 584.862 832.605 585.659 836.291 587.085C872.393 601.152 883.571 675.944 885.686 688.683C886.463 693.103 888.632 700.515 891.426 708.608C897.619 727.539 906.634 750.384 906.634 750.384C924.762 742.572 932.245 740.34 939.152 738.36C944.167 736.894 948.896 735.7 957.074 732.556C959.54 731.642 962.178 730.576 965.012 729.607C971.934 727.101 978.885 724.674 985.863 722.329C1003.12 716.563 1019.14 711.548 1019.14 711.548Z" fill="#008080"/>
<path d="M730.644 568.374V578.236C730.341 578.338 730.141 578.338 729.833 578.338H727.487C722.909 578.236 718.229 576.912 713.554 574.272H713.457C712.602 573.832 711.785 573.323 711.013 572.749C709.977 572.034 708.962 571.288 707.97 570.512C704.921 568.177 701.97 565.12 699.023 561.465C699.121 557.502 699.023 554.144 699.023 551.807C700.244 553.235 701.367 554.661 702.575 555.876C705.933 559.336 709.19 562.085 712.542 564.014C713.154 564.42 713.865 564.828 714.477 565.123C716.617 566.243 718.646 567.057 720.775 567.566C721.18 567.766 721.589 567.766 721.992 567.874C722.515 567.971 722.909 567.971 723.315 568.08C724.032 568.18 724.844 568.283 725.561 568.38C726.264 568.486 726.881 568.58 727.487 568.58C727.887 568.58 728.404 568.58 728.81 568.486C728.913 568.58 729.016 568.58 729.113 568.486H729.21C729.618 568.48 730.139 568.48 730.644 568.374Z" fill="#A5735B"/>
<path d="M730.646 638.916V914.103L683.169 912.074L644.133 910.345L648.099 862.262L652.468 808.479C658.772 811.13 665.89 814.276 672.705 817.331C670.867 796.083 670.067 776.566 671.282 760.601C676.057 701.232 683.472 652.846 689.267 621.231V621.128C688.667 615.03 689.481 608.218 690.898 601.917C691.096 600.585 691.407 599.277 691.716 598.054C692.124 596.628 692.416 595.31 692.824 593.987L693.747 590.941C693.947 590.23 694.256 589.518 694.456 588.904C695.205 586.419 696.089 583.976 697.102 581.586H697.299C696.488 585.249 693.636 597.448 690.084 616.656V616.762C692.416 626.926 699.845 632.618 709 635.775C709.098 635.775 709.298 635.87 709.406 635.87C715.698 638.01 722.822 638.818 729.623 638.918C729.926 638.916 730.343 639.021 730.646 638.916Z" fill="white"/>
<path d="M697.292 581.586C696.481 585.249 693.629 597.448 690.077 616.656V616.762C689.774 618.185 689.569 619.608 689.263 621.131V621.234C683.468 652.849 676.053 701.234 671.278 760.604C670.06 776.566 670.863 796.086 672.701 817.334C665.988 814.308 659.242 811.357 652.464 808.481C649.724 807.261 647.072 806.25 644.643 805.238C636.499 801.981 632.23 799.64 627.558 797.3C627.261 796.489 627.05 795.58 626.744 794.766C625.321 790.291 624.004 786.019 622.683 782.164C617.697 766.708 613.94 756.844 613.94 756.844C613.94 756.844 613.334 751.666 612.825 743.025C616.28 735.193 619.737 728.28 622.181 724.529C629.29 713.744 671.981 651.331 655.104 616.461C653.354 612.829 650.943 609.554 647.995 606.803C646.077 604.908 643.921 603.268 641.583 601.925C635.802 598.365 613.002 602.394 599.992 607.986C623.578 585.512 663.654 581.289 670.972 581.8V581.592H697.292V581.586ZM685.677 937.88H620.249C622.215 931.462 624.155 924.878 625.964 918.272C631.79 897.338 636.611 876.084 638.234 858.81C641.569 860.022 644.84 861.142 648.106 862.259C659.896 866.417 670.663 870.397 678.776 873.349C679.507 880.016 680.305 886.711 681.085 893.343C681.793 899.644 682.519 905.907 683.162 912.079C684.125 920.898 684.991 929.542 685.677 937.88Z" fill="#008080"/>
<path d="M730.641 578.232V638.919C730.338 639.024 729.924 638.919 729.615 638.919C722.814 638.819 715.691 638.01 709.398 635.87C709.293 635.87 709.093 635.775 708.993 635.775C699.837 632.618 692.408 626.926 690.076 616.762V616.656C693.628 597.448 696.483 585.252 697.291 581.586H698.717V579.657C698.717 578.44 698.823 577.32 698.823 576.2C698.92 572.539 698.92 569.085 699.02 565.727V561.461C701.966 565.119 704.918 568.173 707.967 570.508C708.993 571.425 710.004 572.134 711.01 572.745C711.83 573.354 712.642 573.854 713.453 574.268H713.55C718.534 577.117 723.429 578.334 728.295 578.334C729.112 578.334 729.921 578.334 730.641 578.232Z" fill="#F4C7B1"/>
<path d="M758.694 847.322C757.983 851.794 755.037 855.149 755.037 855.149C755.037 855.149 756.763 861.041 752.802 864.904C752.802 864.904 754.122 870.493 748.939 874.154C748.939 874.154 750.159 879.646 746.087 881.986C746.087 881.986 737.24 883.106 734 882.498C720.856 879.507 707.742 876.388 694.658 873.142L703.296 836.846V836.749C707.06 834.209 710.612 831.863 711.735 831.154C714.481 829.523 723.836 830.037 733.48 833.083C742.844 836.035 753.314 840.201 756.257 841.827C757.786 842.641 759.3 842.953 758.694 847.322Z" fill="#EEA886"/>
<path d="M704.419 832.069L703.296 836.75V836.847L694.657 873.143L693.337 878.738C693.337 878.738 687.739 876.603 678.784 873.346C670.657 870.397 659.89 866.436 648.098 862.27C644.843 861.147 641.583 860.027 638.242 858.815C615.162 850.877 590.759 842.645 577.543 839.596C548.774 832.884 529.655 822.111 520.305 813.067C511.061 804.02 542.368 728.591 551.626 712.121C560.776 695.65 571.54 659.666 584.661 628.054C590.251 614.629 599.495 606.805 609.159 602.742C622.177 597.147 635.799 598.364 641.58 601.925C643.919 603.266 646.075 604.906 647.992 606.802C650.94 609.553 653.351 612.828 655.101 616.461C671.978 651.331 629.287 713.744 622.177 724.528C619.734 728.28 616.277 735.195 612.822 743.024C604.487 761.112 595.54 783.986 595.54 783.986C614.139 790.601 621.152 794.05 627.555 797.299C632.227 799.64 636.496 801.98 644.64 805.237C647.069 806.249 649.721 807.261 652.461 808.481C658.765 811.132 665.883 814.279 672.698 817.333C683.31 822.161 693.884 827.073 704.419 832.069Z" fill="#008080"/>
<path d="M800.203 487.895L799.329 448.062C799.2 441.415 799.329 434.832 798.38 428.668C797.443 422.416 795.745 416.295 793.116 410.629C787.95 399.27 779.281 389.684 768.394 383.603C757.518 377.428 744.868 374.622 732.252 374.673C719.639 374.622 706.963 377.428 696.131 383.603C685.221 389.684 676.554 399.27 671.371 410.629C668.759 416.292 667.064 422.416 666.124 428.668C665.178 434.898 665.273 441.33 665.184 448.062L664.293 487.895H659.301L658.446 448.062C658.366 441.53 658.066 434.652 658.946 427.705C659.815 420.824 661.504 413.961 664.295 407.506C669.702 394.484 679.803 383.446 692.024 376.465C704.263 369.376 718.393 366.181 732.255 366.109C746.125 366.181 760.241 369.376 772.477 376.465C784.707 383.446 794.794 394.484 800.192 407.506C802.98 413.961 804.689 420.824 805.575 427.705C806.444 434.706 806.155 441.464 806.078 448.062L805.212 487.895H800.203Z" fill="white"/>
<path d="M663.289 509.526C654.325 509.526 652.064 503.1 652.064 495.162V469.407C652.064 461.478 654.325 455.037 663.289 455.037H665.432V509.526H663.289Z" fill="#0B4870"/>
<path d="M665.43 455.037H670.062V509.526H665.43V455.037Z" fill="#008080"/>
<path d="M802.573 509.526C811.545 509.526 813.823 503.1 813.823 495.162V469.407C813.823 461.478 811.545 455.037 802.573 455.037H800.43V509.526H802.573Z" fill="#0B4870"/>
<path d="M795.797 455.037H800.432V509.526H795.797V455.037Z" fill="#008080"/>
<path d="M735.572 559.18V554.182C756.249 554.182 795.628 524.799 795.628 509.525H800.614C800.614 528.859 757.055 559.18 735.572 559.18Z" fill="#CCFFD2"/>
<path d="M738.897 563.663H732.239C726.715 563.663 722.246 560.549 722.246 556.682C722.246 552.831 726.715 549.719 732.239 549.719H738.897C744.414 549.719 748.886 552.833 748.886 556.682C748.884 560.549 744.414 563.663 738.897 563.663Z" fill="#0B4870"/>
<path d="M557.276 289.878V329.348L557.039 382.929L556.722 447.645L556.522 495.388L508.959 447.462L494.446 447.411L301.986 446.511C269.471 440.167 244.934 411.552 244.934 377.242V289.878C244.934 253.636 272.337 223.704 307.535 219.764L500.45 220.652C532.836 227.045 557.276 255.605 557.276 289.878Z" fill="#008080"/>
<path opacity="0.8" d="M497.278 291.776C497.279 293.137 497.012 294.485 496.492 295.743C495.972 297.001 495.21 298.144 494.248 299.107C493.287 300.07 492.145 300.835 490.888 301.357C489.631 301.879 488.283 302.148 486.922 302.149H309.515C308.153 302.149 306.805 301.881 305.547 301.359C304.289 300.838 303.146 300.074 302.183 299.11C301.22 298.147 300.457 297.004 299.936 295.745C299.415 294.487 299.148 293.138 299.148 291.776C299.148 290.415 299.417 289.067 299.938 287.809C300.459 286.552 301.222 285.409 302.185 284.447C303.148 283.484 304.291 282.721 305.548 282.2C306.806 281.68 308.154 281.412 309.515 281.412H486.922C492.637 281.412 497.278 286.05 497.278 291.776ZM497.278 330.375C497.276 333.123 496.185 335.758 494.244 337.703C492.303 339.648 489.67 340.744 486.922 340.751H309.515C306.766 340.745 304.131 339.65 302.188 337.705C300.244 335.76 299.151 333.124 299.148 330.375C299.148 329.013 299.416 327.665 299.937 326.406C300.457 325.148 301.221 324.005 302.184 323.042C303.146 322.078 304.289 321.314 305.547 320.793C306.805 320.271 308.154 320.003 309.515 320.002H486.922C488.283 320.004 489.631 320.273 490.888 320.795C492.145 321.316 493.287 322.081 494.248 323.044C495.21 324.007 495.972 325.15 496.492 326.408C497.012 327.666 497.279 329.014 497.278 330.375ZM443.08 368.971C443.08 374.657 438.422 379.315 432.696 379.315H309.504C306.763 379.312 304.134 378.221 302.197 376.281C300.26 374.342 299.171 371.712 299.171 368.971C299.171 366.105 300.3 363.528 302.186 361.644C303.143 360.676 304.282 359.906 305.538 359.38C306.794 358.854 308.142 358.583 309.504 358.581H432.696C435.45 358.584 438.09 359.68 440.037 361.628C441.984 363.576 443.078 366.217 443.08 368.971Z" fill="#CCFFD2"/>
</g>
<defs>
<clipPath id="clip0_280_2">
<rect width="1428.74" height="1203" fill="white"/>
</clipPath>
</defs>
</svg>
